<svg width="41" height="40" viewBox="0 0 41 40" fill="none" xmlns="http://www.w3.org/2000/svg">
<path d="M17.3184 34.5223V35.6456C17.3184 37.4033 18.7433 38.8281 20.5009 38.8281C22.2586 38.8281 23.6834 37.4033 23.6834 35.6456V34.5223" stroke="#A84D22" stroke-width="2.34375" stroke-miterlimit="10"/>
<path d="M31.1718 19.4209C31.1718 13.5275 26.3943 8.75 20.5009 8.75C14.6076 8.75 9.83008 13.5275 9.83008 19.4209C9.83008 23.4853 12.1027 27.0188 15.4463 28.8205C15.4463 30.0641 15.4463 34.1406 15.4463 34.1406H25.5555V28.8205C28.8992 27.0188 31.1718 23.4854 31.1718 19.4209Z" stroke="#A84D22" stroke-width="2.34375" stroke-miterlimit="10"/>
<path d="M15.3828 29.2205H25.8665" stroke="#A84D22" stroke-width="2.34375" stroke-miterlimit="10"/>
<path d="M20.5 5.07812V0" stroke="#A84D22" stroke-width="2.34375" stroke-miterlimit="10"/>
<path d="M30.6406 9.27779L34.2314 5.68701" stroke="#A84D22" stroke-width="2.34375" stroke-miterlimit="10"/>
<path d="M34.8398 19.4168H39.918" stroke="#A84D22" stroke-width="2.34375" stroke-miterlimit="10"/>
<path d="M30.6406 29.5558L34.2314 33.1466" stroke="#A84D22" stroke-width="2.34375" stroke-miterlimit="10"/>
<path d="M10.3623 29.5558L6.77148 33.1466" stroke="#A84D22" stroke-width="2.34375" stroke-miterlimit="10"/>
<path d="M6.16211 19.4168H1.08398" stroke="#A84D22" stroke-width="2.34375" stroke-miterlimit="10"/>
<path d="M10.3623 9.27779L6.77148 5.68701" stroke="#A84D22" stroke-width="2.34375" stroke-miterlimit="10"/>
<path d="M16.5371 19.1791L19.0252 21.6673L24.4648 16.2277" stroke="#A84D22" stroke-width="2.34375" stroke-miterlimit="10"/>
</svg>
