<svg width="35" height="35" viewBox="0 0 35 35" fill="none" xmlns="http://www.w3.org/2000/svg">
<g clip-path="url(#clip0_813_1016)">
<path d="M33.9469 17.5001C33.9469 26.5899 26.5782 33.9586 17.4884 33.9586C12.4416 33.9586 7.92531 31.687 4.90625 28.1106" stroke="#A84D22" stroke-width="2.04877" stroke-miterlimit="10"/>
<path d="M1.0293 17.5002C1.0293 8.41042 8.39797 1.04175 17.4877 1.04175C22.4673 1.04175 26.9303 3.25312 29.9484 6.74743" stroke="#A84D22" stroke-width="2.04877" stroke-miterlimit="10"/>
<path d="M3.37833 28.6738C4.67783 28.6738 5.73128 27.6203 5.73128 26.3208C5.73128 25.0213 4.67783 23.9679 3.37833 23.9679C2.07884 23.9679 1.02539 25.0213 1.02539 26.3208C1.02539 27.6203 2.07884 28.6738 3.37833 28.6738Z" stroke="#A84D22" stroke-width="2.04877" stroke-miterlimit="10"/>
<path d="M31.6244 10.7515C32.9239 10.7515 33.9774 9.69809 33.9774 8.3986C33.9774 7.0991 32.9239 6.04565 31.6244 6.04565C30.3249 6.04565 29.2715 7.0991 29.2715 8.3986C29.2715 9.69809 30.3249 10.7515 31.6244 10.7515Z" stroke="#A84D22" stroke-width="2.04877" stroke-miterlimit="10"/>
<path d="M24.6842 21.6556V13.3445L17.4867 9.18896L10.2891 13.3445V21.6556L17.4867 25.8111L24.6842 21.6556Z" stroke="#A84D22" stroke-width="2.04877" stroke-miterlimit="10"/>
<path d="M10.2891 13.3444L17.4867 17.4999L24.6842 13.3444" stroke="#A84D22" stroke-width="2.04877" stroke-miterlimit="10"/>
<path d="M17.4863 17.5V25.811" stroke="#A84D22" stroke-width="2.04877" stroke-miterlimit="10"/>
</g>
<defs>
<clipPath id="clip0_813_1016">
<rect width="35" height="35" fill="white"/>
</clipPath>
</defs>
</svg>
