<svg width="40" height="34" viewBox="0 0 40 34" fill="none" xmlns="http://www.w3.org/2000/svg">
<path d="M11.3779 22.4172H1.55273L3.1234 16.9999L1.55273 11.5825H11.7804" stroke="#A84D22" stroke-width="2.33301" stroke-miterlimit="10"/>
<path d="M28.0059 11.5826H38.4246L36.7729 17L38.4246 22.4173H28.4052" stroke="#A84D22" stroke-width="2.33301" stroke-miterlimit="10"/>
<path d="M13.1837 23.8044C9.42575 20.0464 9.42575 13.9536 13.1837 10.1957C16.9416 6.43771 23.0345 6.43771 26.7923 10.1957C30.5503 13.9536 30.5503 20.0464 26.7923 23.8043C23.0345 27.5623 16.9416 27.5623 13.1837 23.8044Z" stroke="#A84D22" stroke-width="2.33301" stroke-miterlimit="10"/>
<path d="M34.1758 22.4175C34.0255 22.6764 33.8422 22.9185 33.6281 23.1369L31.4648 25.344L29.1962 29.6823L24.3671 30.4928L19.9836 32.6747L15.6014 30.4883L10.7714 29.6777L8.51072 25.3342L6.34786 23.1279C6.1487 22.9247 5.97613 22.7011 5.83203 22.4624" stroke="#A84D22" stroke-width="2.33301" stroke-miterlimit="10"/>
<path d="M5.80273 11.5824C5.95306 11.3235 6.13636 11.0815 6.35045 10.863L8.51377 8.65592L10.7824 4.3176L15.6114 3.50711L19.995 1.3252L24.3772 3.51162L29.207 4.32219L31.4677 8.66571L33.6305 10.872C33.8297 11.0753 34.0023 11.2988 34.1464 11.5375" stroke="#A84D22" stroke-width="2.33301" stroke-miterlimit="10"/>
</svg>
