<svg width="31" height="35" viewBox="0 0 31 35" fill="none" xmlns="http://www.w3.org/2000/svg">
<path d="M21.3858 15.0505C21.874 14.5623 21.874 13.7709 21.3858 13.2827C20.8976 12.7946 20.1063 12.7946 19.6181 13.2827L13.8353 19.0655L11.3858 16.6161C10.8977 16.128 10.1062 16.128 9.61807 16.6161C9.12992 17.1043 9.12992 17.8956 9.61807 18.3838L12.9514 21.7171C13.1858 21.9516 13.5038 22.0833 13.8353 22.0833C14.1668 22.0833 14.4848 21.9516 14.7191 21.7171L21.3858 15.0505Z" fill="#A84D22"/>
<path fill-rule="evenodd" clip-rule="evenodd" d="M19.0418 1.20603C16.813 0.0916433 14.1896 0.0916433 11.9609 1.20603L3.45157 5.46066C1.89882 6.23704 0.917969 7.82409 0.917969 9.56013V22.1383C0.917969 24.868 2.32412 27.405 4.6388 28.8517L13.0721 34.1225C14.5583 35.0513 16.4443 35.0513 17.9305 34.1225L26.3638 28.8517C28.6785 27.405 30.0846 24.868 30.0846 22.1383V9.56013C30.0846 7.82409 29.1038 6.23704 27.551 5.46068L19.0418 1.20603ZM13.079 3.44209C14.6038 2.67963 16.3988 2.67963 17.9236 3.44209L26.433 7.69674C27.1388 8.04964 27.5846 8.77101 27.5846 9.56013V22.1383C27.5846 24.006 26.6225 25.7418 25.0388 26.7317L16.6055 32.0025C15.93 32.4247 15.0726 32.4247 14.3971 32.0025L5.9638 26.7317C4.38007 25.7418 3.41797 24.006 3.41797 22.1383V9.56013C3.41797 8.77101 3.8638 8.04964 4.5696 7.69674L13.079 3.44209Z" fill="#A84D22"/>
</svg>
