<svg width="33" height="33" viewBox="0 0 33 33" fill="none" xmlns="http://www.w3.org/2000/svg">
<path d="M1.74321 25.9037C1.71672 24.0624 2.09074 22.543 2.86031 21.3794C3.25296 20.7856 4.05282 20.6226 4.64657 21.0153C5.24044 21.408 5.40337 22.2077 5.01066 22.8015C4.60963 23.4079 4.3807 24.2571 4.33094 25.2943C6.09354 25.5057 7.49468 26.9069 7.70622 28.6695C8.7432 28.6197 9.59263 28.3908 10.1989 27.9898C10.7929 27.597 11.5925 27.7601 11.9852 28.3539C12.378 28.9477 12.2148 29.7475 11.6211 30.1402C10.4958 30.8843 9.03866 31.2593 7.27851 31.2593C7.21837 31.2593 7.15747 31.2584 7.09662 31.2575C6.4042 32.3062 5.21575 33 3.86778 33C1.73541 33 0.000590324 31.2651 0.000590324 29.1328C0.000590324 27.7847 0.694427 26.5961 1.74321 25.9037ZM3.86778 30.4218C4.57857 30.4218 5.15684 29.8436 5.15684 29.1328C5.15684 28.422 4.57857 27.8437 3.86778 27.8437C3.15699 27.8437 2.57872 28.422 2.57872 29.1328C2.57872 29.8436 3.15699 30.4218 3.86778 30.4218Z" fill="#A84D22"/>
<path d="M4.89844 16.5C4.89844 15.4671 5.30069 14.4959 6.03107 13.7655L8.07546 11.7211C8.5789 11.2177 9.39514 11.2177 9.89852 11.7211C10.4019 12.2246 10.4019 13.0407 9.89852 13.5441L7.85413 15.5885C7.61062 15.832 7.47656 16.1557 7.47656 16.5C7.47656 16.8443 7.61062 17.168 7.85413 17.4115L15.5885 25.1459C15.832 25.3894 16.1556 25.5234 16.5 25.5234C16.8444 25.5234 17.168 25.3894 17.4115 25.1459L25.1459 17.4115C25.3894 17.168 25.5234 16.8443 25.5234 16.5C25.5234 16.1557 25.3894 15.832 25.1459 15.5885L17.4115 7.85413C17.168 7.61063 16.8444 7.47656 16.5 7.47656C16.1556 7.47656 15.832 7.61063 15.5885 7.85413L13.5441 9.89852C13.0407 10.402 12.2244 10.402 11.7211 9.89852C11.2177 9.39507 11.2177 8.5789 11.7211 8.07553L13.7654 6.0312C14.4958 5.30069 15.467 4.89844 16.5 4.89844C17.533 4.89844 18.5042 5.30069 19.2346 6.03114L26.9689 13.7655C27.6993 14.4959 28.1016 15.4671 28.1016 16.5C28.1016 17.5329 27.6993 18.5041 26.9689 19.2345L19.2346 26.9689C18.5042 27.6993 17.533 28.1016 16.5 28.1016C15.467 28.1016 14.4958 27.6993 13.7654 26.9689L6.03107 19.2345C5.30069 18.5041 4.89844 17.5329 4.89844 16.5Z" fill="#A84D22"/>
<path d="M27.9899 10.1984C28.391 9.59204 28.6199 8.74281 28.6697 7.70563C26.9071 7.49416 25.5059 6.09301 25.2944 4.33041C24.2573 4.38017 23.408 4.60911 22.8016 5.01013C22.5828 5.1549 22.3359 5.22412 22.0918 5.22412C21.6736 5.22405 21.2633 5.0209 21.0154 4.64597C20.6226 4.05217 20.7857 3.25243 21.3795 2.85972C22.5431 2.09021 24.0623 1.71613 25.9038 1.74262C26.5963 0.693773 27.7848 0 29.1328 0C31.2652 0 33 1.73482 33 3.86719C33 5.21529 32.3062 6.4038 31.2574 7.09622C31.2839 8.93752 30.9098 10.457 30.1403 11.6206C29.7482 12.2135 28.9486 12.378 28.354 11.9847C27.7602 11.592 27.5972 10.7922 27.9899 10.1984ZM29.1328 2.57812C28.422 2.57812 27.8438 3.1564 27.8438 3.86719C27.8438 4.57798 28.422 5.15625 29.1328 5.15625C29.8436 5.15625 30.4219 4.57798 30.4219 3.86719C30.4219 3.1564 29.8436 2.57812 29.1328 2.57812Z" fill="#A84D22"/>
<path d="M0.000574112 3.86719C0.000574112 1.73482 1.73539 0 3.86776 0C5.2158 0 6.40431 0.693773 7.09673 1.74262C8.93803 1.71619 10.4574 2.09021 11.6211 2.85972C12.2149 3.25243 12.378 4.05217 11.9852 4.64597C11.7372 5.0209 11.327 5.22412 10.9088 5.22412C10.6647 5.22412 10.4178 5.15483 10.1989 5.01013C9.59255 4.60911 8.74332 4.38011 7.7062 4.33041C7.49473 6.09308 6.09359 7.49416 4.33099 7.70569C4.38068 8.74281 4.60968 9.59204 5.01064 10.1984C5.40336 10.7922 5.24036 11.592 4.64655 11.9847C4.05152 12.3782 3.25217 12.2132 2.86029 11.6206C2.09072 10.457 1.7167 8.93752 1.74319 7.09622C0.694411 6.4038 0.000574112 5.21529 0.000574112 3.86719ZM5.15682 3.86719C5.15682 3.1564 4.57855 2.57812 3.86776 2.57812C3.15697 2.57812 2.5787 3.1564 2.5787 3.86719C2.5787 4.57798 3.15697 5.15625 3.86776 5.15625C4.57855 5.15625 5.15682 4.57798 5.15682 3.86719Z" fill="#A84D22"/>
<path d="M22.8016 27.9898C23.408 28.3909 24.2573 28.6199 25.2944 28.6695C25.5058 26.9069 26.907 25.5058 28.6697 25.2943C28.6199 24.2572 28.391 23.4079 27.9899 22.8015C27.5972 22.2077 27.7602 21.4079 28.354 21.0153C28.948 20.6225 29.7476 20.7856 30.1403 21.3794C30.9098 22.543 31.2839 24.0624 31.2574 25.9037C32.3062 26.5962 33 27.7847 33 29.1328C33 31.2651 31.2652 33 29.1328 33C27.7848 33 26.5964 32.3063 25.904 31.2576C25.8431 31.2585 25.7822 31.2595 25.7221 31.2595C23.9621 31.2595 22.5047 30.8844 21.3795 30.1403C20.7857 29.7476 20.6226 28.9479 21.0154 28.3541C21.408 27.7601 22.2079 27.5972 22.8016 27.9898ZM29.1328 30.4218C29.8436 30.4218 30.4219 29.8436 30.4219 29.1328C30.4219 28.422 29.8436 27.8437 29.1328 27.8437C28.422 27.8437 27.8438 28.422 27.8438 29.1328C27.8438 29.8436 28.422 30.4218 29.1328 30.4218Z" fill="#A84D22"/>
</svg>
